<svg width="163" height="56" viewBox="0 0 163 56" fill="none" xmlns="http://www.w3.org/2000/svg">
<path fill-rule="evenodd" clip-rule="evenodd" d="M116.927 21.3769V2.91324C116.927 0.915422 117.092 0.0601044 118.839 0.0601044H130.987C131.382 0.0601044 132.719 0.244903 131.489 2.09539L118.53 21.5242C117.883 22.4944 117.059 22.3583 116.927 21.3769Z" fill="#F3B300"/>
<path fill-rule="evenodd" clip-rule="evenodd" d="M131.996 14.6979V33.1615C131.996 35.1593 131.832 36.0147 130.085 36.0147H117.937C117.541 36.0147 116.204 35.8299 117.435 33.9794L130.39 14.5506C131.037 13.5804 131.861 13.7165 131.992 14.6979H131.996Z" fill="#0469A6"/>
<path fill-rule="evenodd" clip-rule="evenodd" d="M138.383 21.3769V2.91324C138.383 0.915422 138.548 0.0601044 140.294 0.0601044H152.444C152.838 0.0601044 154.175 0.244903 152.946 2.09539L139.989 21.5242C139.343 22.4944 138.52 22.3583 138.387 21.3769H138.383Z" fill="#B81872"/>
<path fill-rule="evenodd" clip-rule="evenodd" d="M153.452 14.6979V33.1615C153.452 35.1593 153.289 36.0147 151.542 36.0147H139.393C138.999 36.0147 137.66 35.8299 138.891 33.9794L151.846 14.5506C152.493 13.5804 153.316 13.7165 153.448 14.6979H153.452Z" fill="#329232"/>
<path fill-rule="evenodd" clip-rule="evenodd" d="M162.504 1.73703V34.9271C162.504 35.2218 162.135 36.0134 160.935 36.0134H159.581V0.000178338H161.268C162.515 -0.0185512 162.504 1.4436 162.504 1.73703Z" fill="#016CA5"/>
<path fill-rule="evenodd" clip-rule="evenodd" d="M99.737 0.597247L95.1628 21.6655C94.8929 20.6167 94.5639 19.368 94.1885 17.9433C93.813 16.5186 93.415 14.9928 92.9919 13.3833C92.5687 11.7738 92.1481 10.1756 91.7262 8.5773C91.3043 6.97904 90.9063 5.49441 90.5409 4.12091C90.1755 2.7474 89.8604 1.56619 89.6017 0.597247H80.5927C80.334 1.56619 80.0189 2.7474 79.6535 4.12091C79.2881 5.49441 78.8926 6.97904 78.4757 8.5773C78.0589 10.1756 77.632 11.7738 77.2088 13.3833C76.7857 14.9928 76.3877 16.5049 76.0135 17.9433C75.6393 19.3818 75.3091 20.6167 75.0391 21.6655L70.4574 0.597247H57.6502L59.0502 4.52297C58.7094 4.16314 58.3507 3.82058 57.9754 3.49659C56.6487 2.38384 55.1246 1.52755 53.4815 0.971839C51.745 0.353763 49.7624 0.0490948 47.5463 0.0378571C44.6441 0.049511 42.1727 0.520248 40.1319 1.45007C38.0789 2.37031 36.4127 3.6664 35.1345 5.32085C34.1512 6.60181 33.3712 8.02515 32.8217 9.54125C32.5249 8.63986 32.1322 7.77255 31.6502 6.95407C30.3356 4.74522 28.4823 3.05956 26.0652 1.88085C23.6482 0.702133 20.7766 0.125262 17.453 0.107781C15.6236 0.112633 13.7971 0.252868 11.9886 0.527323C10.396 0.780866 8.81831 1.11974 7.26246 1.54247C5.81851 1.95077 4.57545 2.35908 3.50818 2.76863C2.44091 3.17818 1.60718 3.52531 1.00449 3.81749C0.401796 4.10967 0.0590138 4.27199 0 4.3082V35.5242H12.1066V9.6274C12.6426 9.4842 13.188 9.37864 13.7389 9.3115C14.364 9.23825 14.993 9.20322 15.6223 9.20661C16.996 9.21785 18.0871 9.33148 18.897 9.5812C19.7068 9.83093 20.2919 10.1418 20.6661 10.5264C21.0188 10.8688 21.2707 11.3006 21.3944 11.7751C21.4977 12.1949 21.5449 12.6265 21.535 13.0587V35.5242H33.6404V28.6242C34.0912 29.4746 34.6389 30.2707 35.2727 30.9966C36.3698 32.2612 37.6994 33.3063 39.1902 34.0758C40.6038 34.7934 42.1126 35.3084 43.6714 35.6053C45.1331 35.8797 46.6175 36.016 48.105 36.0124C50.6465 36.032 53.1796 35.7183 55.6387 35.0797C57.856 34.5097 59.9695 33.5967 61.9017 32.3739V23.9056C61.0006 24.4402 60.055 24.8968 59.0753 25.2703C57.8918 25.7075 56.6704 26.0356 55.4265 26.2505C53.9162 26.5134 52.3855 26.6421 50.8523 26.6351C49.9279 26.6318 49.0096 26.486 48.1301 26.2031C47.2657 25.9269 46.4502 25.5178 45.7131 24.9907C45.0161 24.4978 44.426 23.8707 43.9778 23.1464C43.5529 22.4454 43.3252 21.6437 43.3186 20.8252H63.308C63.4555 19.5791 63.5263 18.3252 63.5202 17.0705L70.1058 35.5242H80.7358L85.1004 19.8463L89.4611 35.5242H100.089L112.547 0.597247H99.737ZM43.6049 13.6168C43.6425 12.8911 43.7561 12.1714 43.9439 11.4691C44.1176 10.8028 44.3825 10.1633 44.7312 9.56872C45.0342 9.03293 45.4455 8.5653 45.9391 8.19521C46.4069 7.85833 46.9687 7.675 47.5463 7.67079C48.147 7.67716 48.7257 7.8963 49.1786 8.28886C49.6777 8.70976 50.0878 9.225 50.3852 9.80471C50.7185 10.4165 50.9781 11.0653 51.1587 11.7376C51.3335 12.3488 51.4433 12.9766 51.4864 13.6106L43.6049 13.6168Z" fill="#016CA5"/>
<path fill-rule="evenodd" clip-rule="evenodd" d="M10.7703 45.4869C10.2933 45.4879 9.8174 45.5335 9.34894 45.623C8.95321 45.697 8.56305 45.798 8.18122 45.9251C7.83844 46.0412 7.55969 46.1486 7.34122 46.2435C7.02538 45.992 6.66453 45.8022 6.27771 45.6841C5.83008 45.5489 5.36434 45.4824 4.89654 45.4869C4.47328 45.4878 4.05082 45.5233 3.6334 45.593C2.97798 45.703 2.33671 45.8843 1.7211 46.1336C1.48881 46.231 1.31177 46.3122 1.18872 46.3721V54.8529H2.52092V47.1475C2.85291 47.0458 3.19145 46.9665 3.5342 46.9103C3.92871 46.8477 4.32754 46.816 4.72703 46.8154C5.15396 46.8028 5.57957 46.8684 5.98265 47.0089C6.25976 47.11 6.50498 47.2824 6.69332 47.5084C6.84645 47.7027 6.95334 47.9289 7.00597 48.1702C7.05775 48.3983 7.08178 48.6318 7.07754 48.8657V54.8591H8.41225V48.8657C8.4138 48.5811 8.39028 48.297 8.34194 48.0166C8.29461 47.7631 8.21923 47.5156 8.11718 47.2786C8.31934 47.2087 8.55539 47.1375 8.82033 47.0701C9.10545 46.996 9.3942 46.9364 9.68544 46.8916C10.0126 46.8429 10.3428 46.8182 10.6736 46.8179C11.0918 46.8059 11.5085 46.8728 11.9016 47.0152C12.1736 47.1172 12.4134 47.2896 12.5959 47.5146C12.7457 47.7115 12.851 47.938 12.9048 48.1789C12.9552 48.4043 12.978 48.6349 12.9726 48.8657V54.8591H14.3136V48.8657C14.3317 48.2312 14.1874 47.6027 13.8943 47.0389C13.6212 46.5415 13.2002 46.1403 12.6889 45.8902C12.0901 45.6104 11.4341 45.4732 10.7728 45.4893L10.7703 45.4869ZM30.059 45.4869C29.6513 45.4859 29.2445 45.5256 28.8448 45.6055C28.4352 45.688 28.0406 45.832 27.6746 46.0325C27.2875 46.2449 26.9462 46.5308 26.6701 46.8741C26.3526 47.2836 26.1169 47.7499 25.9757 48.2476C25.6292 49.561 25.6292 50.9411 25.9757 52.2545C26.1173 52.7497 26.353 53.2134 26.6701 53.6205C26.9462 53.9641 27.2875 54.2505 27.6746 54.4633C28.0409 54.6633 28.4354 54.8073 28.8448 54.8903C29.6466 55.0468 30.4714 55.0468 31.2732 54.8903C31.6851 54.8077 32.0822 54.6638 32.4509 54.4633C32.8378 54.2502 33.1791 53.9639 33.4554 53.6205C33.7748 53.2122 34.0115 52.7462 34.1523 52.2482C34.5022 50.9353 34.5022 49.5543 34.1523 48.2413C34.011 47.743 33.7739 47.2765 33.4542 46.8678C33.1777 46.5249 32.8365 46.239 32.4497 46.0263C32.0811 45.8253 31.684 45.6813 31.2719 45.5992C30.8722 45.5193 30.4654 45.4795 30.0577 45.4806L30.059 45.4869ZM30.059 53.784C29.3634 53.784 28.7921 53.6592 28.3501 53.4157C27.8968 53.1565 27.5493 52.7473 27.3682 52.2595C27.1573 51.7375 27.0531 51.0658 27.0556 50.2442C27.0556 49.4251 27.1573 48.752 27.3682 48.2301C27.5482 47.7416 27.896 47.3321 28.3501 47.0739C28.7921 46.8241 29.3634 46.6993 30.059 46.6993C30.7546 46.6993 31.3347 46.8241 31.7829 47.0739C32.2378 47.3323 32.5867 47.7416 32.7686 48.2301C32.9795 48.752 33.0838 49.4251 33.08 50.2442C33.0762 51.0633 32.9795 51.7425 32.7686 52.2595C32.5857 52.7474 32.237 53.1564 31.7829 53.4157C31.3351 53.6654 30.7605 53.7882 30.059 53.784ZM49.3452 45.4869C48.956 45.4864 48.5675 45.5186 48.1837 45.583C47.8044 45.6437 47.4306 45.7352 47.0662 45.8564V42.133H45.7328V52.0896C45.735 52.2791 45.7539 52.4679 45.7893 52.654C45.8388 52.9173 45.9272 53.1719 46.0517 53.4095C46.2037 53.7009 46.4114 53.9601 46.6632 54.1724C46.9886 54.4412 47.3647 54.6428 47.7694 54.7655C48.3356 54.9324 48.9242 55.012 49.5147 55.0015C49.8519 55.0005 50.1882 54.9679 50.5192 54.9041C50.8986 54.8267 51.2643 54.6933 51.604 54.5083C51.9851 54.2993 52.3209 54.0175 52.5922 53.6792C52.9223 53.2608 53.1671 52.7823 53.3129 52.2707C53.5082 51.5755 53.602 50.856 53.5917 50.1343C53.6037 49.473 53.5191 48.8135 53.3405 48.1764C53.2008 47.6928 52.9694 47.2401 52.6587 46.8429C52.3902 46.5069 52.0573 46.2272 51.6794 46.02C51.3218 45.8233 50.936 45.6823 50.5355 45.6017C50.1457 45.5238 49.749 45.4853 49.3515 45.4869H49.3452ZM49.5122 53.784C48.6973 53.784 48.0845 53.6479 47.6777 53.3807C47.2709 53.1135 47.0662 52.7052 47.0662 52.1608V47.1837C47.4255 47.0369 47.7975 46.9228 48.1775 46.8429C48.5613 46.7609 48.9526 46.7191 49.3452 46.718C50.022 46.718 50.5782 46.8316 51.0076 47.0689C51.4448 47.316 51.7808 47.708 51.9569 48.1764C52.1565 48.6821 52.2595 49.3327 52.2569 50.1293C52.2648 50.6807 52.2067 51.231 52.0837 51.7687C51.9977 52.1487 51.8424 52.5097 51.6254 52.8338C51.4575 53.0791 51.2382 53.2853 50.9825 53.4382C50.7557 53.5721 50.5071 53.6655 50.248 53.7141C50.0055 53.7598 49.759 53.7816 49.5122 53.7791V53.784ZM66.635 54.8529H65.3002V45.6379H66.635V54.8529ZM66.709 42.5376H65.2249V43.996H66.709V42.5376ZM80.2131 54.8529V42.1517H78.8784V54.8529H80.2131ZM95.9974 45.4881C95.4723 45.4819 94.9493 45.556 94.4467 45.7079C94.0497 45.8335 93.679 46.0303 93.3531 46.2885C93.0678 46.5183 92.8241 46.7949 92.6324 47.1063C92.4534 47.3997 92.3113 47.7138 92.2092 48.0416C92.1163 48.3487 92.0483 48.6626 92.0058 48.9805C91.9682 49.2819 91.9464 49.5537 91.9405 49.7959C91.9405 50.0394 91.9405 50.2292 91.9405 50.374C91.9297 51.0344 92.0143 51.6929 92.1917 52.3294C92.3305 52.8124 92.5615 53.2643 92.8722 53.6604C93.1385 53.9945 93.4694 54.2721 93.8453 54.477C94.2017 54.672 94.5863 54.811 94.9854 54.8891C95.3739 54.9666 95.7694 55.0047 96.1657 55.0027C96.773 55.0056 97.3793 54.9513 97.9763 54.8404C98.4906 54.7396 98.9907 54.5769 99.4654 54.3559V52.9912C99.0408 53.2364 98.5784 53.4102 98.0968 53.5056C97.5041 53.6235 96.9007 53.6795 96.2963 53.6729C95.7524 53.6924 95.2103 53.5997 94.7041 53.4007C94.2922 53.2261 93.9475 52.9245 93.721 52.5404C93.4698 52.078 93.3233 51.5666 93.2916 51.042H100.04C100.04 51.0358 100.04 50.9734 100.058 50.851C100.076 50.7286 100.074 50.5788 100.077 50.3977C100.077 50.3416 100.077 50.2154 100.077 50.0169C100.069 49.7662 100.047 49.5162 100.013 49.2677C99.9662 48.9458 99.8957 48.6278 99.8019 48.3163C99.6988 47.9655 99.556 47.6274 99.3763 47.3086C99.1844 46.9695 98.9404 46.6624 98.653 46.3984C98.3331 46.1113 97.9605 45.8883 97.5556 45.7416C97.0577 45.5677 96.5326 45.4832 96.005 45.4918L95.9974 45.4881ZM93.2903 49.8583C93.3318 49.1091 93.4485 48.5011 93.6469 48.0416C93.8115 47.6178 94.1197 47.2645 94.5183 47.0427C94.895 46.8366 95.3972 46.7342 95.9974 46.738C96.3696 46.7323 96.7392 46.8002 97.0848 46.9378C97.3696 47.0528 97.6264 47.2269 97.8382 47.4485C98.0322 47.6486 98.1921 47.8789 98.3115 48.1302C98.4239 48.3598 98.5119 48.6004 98.5739 48.8482C98.624 49.0538 98.6613 49.2623 98.6857 49.4725C98.7008 49.6511 98.7095 49.7797 98.707 49.8571L93.2903 49.8583Z" fill="#B1B4B6"/>
</svg>
